<?xml version="1.0" standalone="no"?>
<!DOCTYPE svg PUBLIC "-//W3C//DTD SVG 20010904//EN"
 "http://www.w3.org/TR/2001/REC-SVG-20010904/DTD/svg10.dtd">
<svg version="1.0" xmlns="http://www.w3.org/2000/svg"
 width="513.000000pt" height="513.000000pt" viewBox="0 0 513.000000 513.000000"
 preserveAspectRatio="xMidYMid meet">
<metadata>
Created by potrace 1.11, written by Peter Selinger 2001-2013
</metadata>
<g transform="translate(0.000000,513.000000) scale(0.100000,-0.100000)"
fill="#000000" stroke="none">
<path d="M2180 4787 c-3 -2 -49 -7 -102 -11 -53 -3 -103 -8 -110 -11 -7 -2
-31 -7 -53 -10 -272 -38 -626 -167 -842 -307 -104 -68 -226 -169 -215 -180 5
-5 64 -46 132 -93 l124 -83 66 57 c312 275 792 414 1302 378 414 -30 782 -174
1019 -400 l37 -35 128 90 c71 50 131 92 133 94 9 8 -162 141 -255 197 -237
142 -535 244 -859 292 -100 15 -494 32 -505 22z"/>
<path d="M2130 4329 c-30 -3 -80 -10 -110 -13 -255 -31 -541 -155 -697 -302
l-37 -36 24 -19 c14 -10 71 -50 128 -88 l103 -69 47 44 c93 88 222 151 412
202 88 23 112 25 315 26 237 1 274 -4 435 -56 140 -45 239 -100 320 -178 l43
-41 51 35 c93 63 171 118 188 134 23 20 15 29 -86 104 -167 122 -399 210 -648
245 -122 17 -399 24 -488 12z"/>
<path d="M2205 3879 c-127 -17 -183 -33 -265 -73 -200 -100 -300 -240 -288
-407 15 -204 212 -366 513 -423 159 -30 269 -19 490 50 l146 45 57 -32 c46
-26 206 -131 220 -144 2 -2 -13 -19 -35 -38 -186 -168 -245 -269 -245 -418 0
-130 49 -233 172 -359 33 -34 58 -65 56 -69 -3 -4 -63 -47 -135 -95 l-130 -88
-74 31 c-455 189 -983 185 -1370 -10 -237 -120 -421 -321 -472 -516 -19 -73
-19 -213 0 -286 83 -318 477 -590 945 -652 113 -15 336 -17 440 -4 152 19 314
67 454 134 280 135 454 326 501 550 41 197 -26 392 -199 581 l-65 71 144 97
143 96 104 -25 c139 -33 222 -43 358 -43 248 -1 462 64 636 195 178 133 252
341 188 528 -62 185 -269 344 -534 411 -94 24 -159 29 -345 27 -152 -1 -196
-5 -285 -26 l-104 -24 -126 86 c-69 47 -138 95 -153 106 l-27 20 21 42 c62
126 72 261 25 357 -39 79 -132 166 -229 215 -148 75 -371 112 -532 90z m238
-208 c141 -33 257 -142 257 -241 0 -66 -35 -135 -90 -175 -46 -34 -103 -62
-142 -71 -10 -2 -28 -6 -40 -9 -57 -14 -166 -13 -227 1 -117 27 -215 102 -238
180 -62 209 198 379 480 315z m1402 -935 c281 -94 375 -316 205 -486 -85 -86
-218 -137 -373 -145 -76 -3 -180 9 -209 25 -10 6 -25 10 -33 10 -40 0 -205
118 -205 146 0 7 -6 17 -14 23 -16 14 -28 69 -28 135 0 48 33 124 73 171 119
136 377 190 584 121z m-1709 -1100 c138 -22 299 -92 389 -169 122 -104 169
-254 122 -387 -11 -30 -28 -64 -38 -76 -11 -11 -19 -23 -19 -27 0 -13 -85 -88
-146 -128 -71 -46 -203 -94 -289 -105 -95 -13 -264 -7 -335 11 -36 9 -79 20
-96 24 -69 18 -180 86 -245 151 -91 91 -111 138 -112 265 0 117 63 223 188
314 64 47 163 93 230 107 64 13 123 24 140 27 29 4 167 0 211 -7z"/>
</g>
</svg>
